<svg fill="#41ae8c" version="1.1" id="Capa_1" xmlns="http://www.w3.org/2000/svg" xmlns:xlink="http://www.w3.org/1999/xlink" viewBox="0 0 580.155 580.154" xml:space="preserve" stroke="#41ae8c" stroke-width="14.503874999999999"><g id="SVGRepo_bgCarrier" stroke-width="0"></g><g id="SVGRepo_tracerCarrier" stroke-linecap="round" stroke-linejoin="round"></g><g id="SVGRepo_iconCarrier"> <g> <path d="M432.604,379.993c-17.748-39.474-36.414-78.336-56.916-116.586c-24.48-45.594-29.682-100.062-50.796-147.492 c-10.71-23.562-31.212-33.354,0.611-28.764c11.935,1.836,28.152,0.918,39.78-2.142c44.37-10.71,79.561-31.518,109.242-66.402 c3.672-4.284,1.836-13.464-5.202-12.546C406.9,13.099,355.186,4.225,293.375,0.247c-35.802-2.142-53.856,9.486-70.686,40.698 c-53.856,98.838-72.522,224.298-80.784,339.66C65.71,379.688-38.023,419.467,26.542,510.35 c53.244,74.97,194.004,67.932,273.869,68.544c77.725,0.611,197.982,12.852,254.287-53.856 C622.324,444.56,494.11,387.031,432.604,379.993z M234.623,47.983c25.092-58.446,122.705-20.196,170.441-21.114 c29.682-0.306,72.216-21.42,21.42,17.136c-37.944,28.764-87.516,34.272-132.192,21.42c-5.813-1.53-11.933,5.202-8.261,10.71 c36.719,52.326,47.124,116.892,68.85,175.95c17.747,47.736,43.451,93.942,66.708,140.454 c-89.658,34.272-182.682,55.08-268.362-2.448C173.116,273.812,187.192,158.144,234.623,47.983z M152.309,398.047 c74.052,57.528,197.981,60.589,274.788,5.509c3.365,7.038,6.731,14.075,9.792,21.113c-82.314,60.588-202.572,47.431-288.558,5.814 c-0.612-0.306-1.224-0.306-1.836-0.306C148.636,419.467,150.472,408.757,152.309,398.047z M469.018,553.189 c-54.468,13.77-112.914,11.322-168.606,10.71c-62.423-0.612-124.235-2.142-185.129-18.054 c-40.392-10.404-78.642-31.824-92.106-73.44c-22.032-67.32,74.97-85.068,118.422-88.434c-1.224,18.359-2.448,36.72-3.366,54.468 c-0.306,3.672,6.12,4.59,6.732,0.918c0-0.918,0.306-1.53,0.306-2.448c52.02,73.746,242.963,53.856,300.797-0.918 c0.306-0.306,0.306-0.612,0.612-0.918c3.978-0.918,7.344-5.508,5.202-10.404c-3.979-9.485-8.263-18.972-12.547-28.458 c51.408,5.814,105.877,24.786,111.996,84.763C556.535,526.873,503.597,544.621,469.018,553.189z"></path> </g> </g></svg>